<svg width="400" height="400" viewBox="0 0 400 400" fill="none" xmlns="http://www.w3.org/2000/svg">
<path d="M145.65 240.563L145.638 240.55L145.575 240.512L145.65 240.563ZM383.388 201.225L355.8 128.238L255.525 73.725L47.725 184.487L17.3375 265.675L139.838 330.85L141.85 242.512L46.55 188.1L54.725 192.425L50.0625 189.737L66.7125 198.588L51.5625 189.737L145.638 240.55L348.2 135.85L315.775 153.65L353.738 134.263L278.6 174.05L148.175 245.637L139.825 330.837L383.375 201.2L383.388 201.225ZM149.7 215.075L94.8375 185.8L148.2 202.3L311.575 129.8L149.7 215.075Z" fill="url(#paint0_linear_47_71)"/>
<defs>
<linearGradient id="paint0_linear_47_71" x1="200.363" y1="73.725" x2="200.363" y2="330.85" gradientUnits="userSpaceOnUse">
<stop stop-color="#E6D804"/>
<stop offset="1" stop-color="#CA4606"/>
</linearGradient>
</defs>
</svg>
